<svg version="1.0" xmlns="http://www.w3.org/2000/svg" width="300.000000pt" height="166.000000pt" viewBox="0 0 300.000000 166.000000" preserveAspectRatio="xMidYMid meet"><metadata>Created by potrace 1.10, written by Peter Selinger 2001-2011</metadata><g transform="translate(0.000000,166.000000) scale(0.100000,-0.100000)" fill="#000000" stroke="none"><path d="M2679 1618 c-6 -24 -17 -61 -24 -83 -7 -22 -16 -56 -20 -75 -4 -19 -11 -39 -15 -45 -5 -5 -8 -12 -7 -15 1 -3 -9 -42 -22 -88 -16 -54 -27 -79 -32 -70 -6 9 -9 5 -10 -12 -3 -52 -24 -141 -59 -245 -12 -36 -20 -69 -17 -72 3 -3 18 35 32 83 15 49 47 150 71 224 24 74 52 169 63 210 43 162 35 150 91 150 28 0 50 4 50 8 0 4 -21 7 -46 7 l-46 -2 5 33 c8 47 0 42 -14 -8z"/><path d="M2238 1620 c-26 -16 -59 -48 -73 -70 -14 -22 -33 -40 -42 -40 -14 0 -14 3 3 22 l19 22 -38 -22 c-21 -12 -43 -22 -48 -22 -6 0 -25 -14 -42 -31 l-31 -32 22 -15 c12 -8 22 -21 22 -28 0 -8 10 -14 24 -14 14 0 68 -29 123 -66 54 -37 104 -69 110 -71 14 -6 203 115 203 129 0 4 16 8 35 8 23 0 35 5 35 14 0 7 10 21 23 30 l22 16 -22 16 c-13 9 -23 23 -23 30 0 8 -10 14 -23 14 -12 0 -39 11 -58 25 -20 13 -39 21 -43 18 -3 -4 -6 -2 -6 4 0 16 -89 75 -102 67 -6 -4 -8 -3 -5 3 6 10 -13 23 -31 23 -4 0 -28 -14 -54 -30z m130 -55 c41 -28 75 -43 84 -40 9 4 19 2 23 -4 7 -13 14 -12 -177 -14 -137 -2 -175 3 -130 17 9 3 42 24 72 46 30 21 56 40 58 40 1 0 33 -20 70 -45z m-252 -90 c-12 -18 -14 -30 -7 -42 8 -15 12 -12 27 20 22 45 30 46 40 5 6 -28 8 -30 14 -13 4 11 5 26 3 33 -8 20 15 14 27 -7 13 -25 13 -44 0 -36 -5 3 -10 -1 -10 -9 0 -18 -35 -22 -45 -6 -4 6 -11 8 -16 4 -5 -3 -7 -9 -4 -14 9 -15 -40 3 -52 19 -11 14 -12 14 -13 -1 0 -10 -7 -18 -15 -18 -13 0 -15 7 -9 38 8 44 12 51 23 33 7 -10 10 -9 14 3 4 9 14 16 23 16 15 0 15 -2 0 -25z m141 2 c-3 -8 -1 -20 4 -28 7 -11 9 -9 9 7 0 23 36 40 43 20 3 -7 9 -6 22 4 16 14 17 13 11 -7 -4 -13 -3 -29 1 -38 7 -12 12 -7 22 20 16 44 36 45 45 3 7 -32 7 -32 22 -13 9 12 11 21 4 23 -27 9 -4 19 45 20 l55 0 0 -39 0 -39 -70 1 c-64 1 -70 3 -71 23 0 21 0 21 -11 -1 -13 -26 -58 -32 -58 -8 0 21 -20 19 -21 -2 -1 -10 -5 -2 -9 17 l-7 35 -2 -32 c-1 -28 -5 -33 -26 -33 -22 0 -25 4 -25 40 0 23 5 40 11 40 6 0 9 -6 6 -13z m198 -96 c-39 -8 -107 -50 -99 -62 3 -5 -2 -6 -11 -3 -11 5 -14 2 -9 -12 5 -16 4 -16 -5 -4 -7 11 -13 12 -21 4 -8 -8 -29 1 -77 32 -47 31 -73 42 -89 38 -12 -3 -25 -1 -28 5 -5 8 48 11 181 10 103 -1 175 -4 158 -8z"/><path d="M2465 1450 c-10 -11 -14 -21 -9 -21 35 -5 64 -4 64 3 0 4 -7 8 -15 8 -8 0 -15 5 -15 11 0 6 7 9 15 5 8 -3 15 -1 15 4 0 17 -36 11 -55 -10z"/><path d="M1924 1423 c-27 -32 -67 -78 -90 -103 -40 -44 -125 -146 -154 -184 -46 -59 -148 -159 -191 -187 -79 -50 -170 -77 -309 -89 -69 -6 -233 -20 -365 -32 -152 -14 -337 -23 -504 -24 -145 -2 -266 -6 -269 -9 -3 -3 -14 -5 -24 -5 -10 0 -18 -6 -18 -14 0 -10 17 -13 66 -13 45 -1 62 3 53 9 -9 6 38 7 131 3 158 -7 182 -7 220 0 31 6 119 13 275 20 66 3 170 11 230 16 61 6 125 11 143 11 17 0 34 3 37 7 2 4 36 8 76 9 39 1 75 5 80 7 4 3 10 -12 12 -32 l4 -38 1 43 c2 39 4 42 30 43 40 1 127 32 127 46 0 6 4 15 9 20 5 4 6 3 3 -3 -11 -19 17 -23 38 -7 17 13 17 15 3 10 -22 -8 -23 -1 -4 18 7 8 16 11 20 8 3 -4 6 3 6 15 0 37 19 24 23 -15 3 -29 4 -24 5 18 2 59 12 72 63 78 6 0 8 8 5 17 -3 8 -2 13 2 10 4 -2 17 7 27 21 11 14 31 37 45 52 14 15 25 32 25 37 0 19 99 135 111 130 8 -3 11 1 7 10 -7 18 15 46 30 37 6 -3 7 -1 3 5 -4 7 -2 12 3 12 6 0 11 5 11 11 0 16 26 39 35 31 5 -4 5 -1 1 6 -5 8 -1 21 10 33 9 10 15 19 12 19 -3 0 -28 -26 -54 -57z"/><path d="M1902 1245 c-24 -35 -43 -68 -43 -72 0 -5 -7 -16 -16 -25 -8 -9 -13 -23 -11 -30 3 -7 17 8 32 34 15 25 34 52 42 59 12 10 54 84 54 96 0 16 -22 -8 -58 -62z"/><path d="M2247 1153 c-4 -3 -7 -12 -7 -20 0 -11 5 -11 20 -3 11 6 20 15 20 20 0 11 -23 13 -33 3z"/><path d="M1852 1110 c-28 -41 -46 -52 -35 -22 6 16 5 16 -13 0 -13 -13 -15 -21 -7 -29 6 -6 15 -9 20 -6 12 8 75 97 69 97 -4 0 -19 -18 -34 -40z"/><path d="M2307 1062 c-30 -33 -38 -70 -22 -102 28 -53 77 -64 127 -29 28 20 30 25 26 71 -4 32 -12 54 -24 63 -27 20 -87 19 -107 -3z m83 -14 c25 -27 26 -69 2 -98 -22 -28 -54 -21 -70 16 -24 51 -10 83 45 103 1 1 11 -9 23 -21z"/><path d="M2190 1034 c0 -8 4 -14 10 -14 5 0 6 -7 3 -17 -4 -10 -2 -14 4 -10 6 4 13 17 15 30 3 17 0 23 -14 24 -10 1 -18 -5 -18 -13z"/><path d="M1730 1020 c0 -5 5 -10 10 -10 6 0 10 -18 10 -40 0 -22 5 -40 10 -40 6 0 10 18 10 40 0 29 4 40 15 40 11 0 15 -11 15 -40 0 -22 5 -40 10 -40 17 0 12 87 -6 94 -25 10 -74 7 -74 -4z"/><path d="M1861 1013 c-6 -10 -11 -12 -11 -5 0 6 -4 12 -10 12 -5 0 -10 -20 -10 -45 0 -26 5 -45 11 -45 6 0 9 7 6 15 -4 8 -2 17 3 20 5 3 11 -4 15 -15 3 -11 11 -20 16 -20 13 0 11 13 -5 36 -13 16 -13 21 0 36 10 10 12 18 5 22 -5 4 -14 -2 -20 -11z"/><path d="M1903 1015 c-5 -8 -7 -31 -5 -50 3 -28 9 -35 26 -35 12 0 27 5 33 11 8 8 13 8 17 0 10 -16 53 -13 60 4 3 8 3 22 -1 31 -4 12 -2 15 8 10 8 -3 22 -9 32 -12 24 -9 22 -28 -3 -21 -13 3 -20 0 -20 -10 0 -10 9 -13 28 -11 38 4 44 45 8 54 -33 8 -34 24 -1 24 14 0 25 5 25 10 0 17 -60 12 -67 -6 -5 -13 -7 -13 -14 -2 -6 8 -9 0 -9 -24 0 -27 -4 -38 -15 -38 -11 0 -15 11 -15 40 0 22 -4 40 -10 40 -5 0 -10 -15 -10 -34 0 -26 -5 -35 -22 -40 -36 -9 -40 -8 -36 22 2 22 8 27 26 24 15 -1 22 2 20 10 -7 19 -45 21 -55 3z"/><path d="M2156 951 c-4 -5 -4 -16 -1 -24 4 -8 -5 -21 -21 -32 -22 -14 -24 -19 -13 -30 8 -7 30 -16 49 -19 19 -3 28 -3 20 1 -29 12 -63 43 -48 43 12 0 23 14 46 63 5 10 -26 9 -32 -2z"/><path d="M2485 886 c-44 -18 -94 -36 -110 -39 -91 -17 -312 -85 -396 -120 -19 -9 -66 -21 -103 -28 -43 -7 -63 -14 -55 -20 7 -4 17 -5 22 -2 11 7 67 -17 67 -29 0 -6 5 -6 14 1 10 8 20 8 42 -4 30 -16 59 -21 36 -6 -8 4 36 11 105 15 64 3 122 11 127 16 5 5 -29 7 -90 4 -104 -5 -214 3 -214 15 0 4 33 15 73 25 40 9 86 23 101 31 42 22 147 37 261 38 77 0 84 1 31 4 -68 4 -69 4 -45 21 19 14 51 17 167 19 78 2 142 -1 142 -5 0 -14 -65 -32 -119 -32 -34 0 -50 -4 -46 -11 4 -5 17 -9 28 -8 44 3 68 -1 62 -11 -3 -5 -15 -10 -25 -10 -20 0 -36 -17 -26 -28 4 -3 15 -1 24 4 9 6 49 28 87 49 39 21 76 42 83 48 7 5 45 27 85 48 l72 38 -131 1 c-72 0 -144 2 -160 5 -19 3 -57 -7 -109 -29z m262 -10 c24 -24 -104 -41 -224 -30 l-78 8 55 17 c41 13 79 16 149 13 52 -2 96 -6 98 -8z"/><path d="M1582 883 c-7 -13 -18 -20 -26 -17 -8 3 -17 1 -21 -5 -6 -11 83 -14 352 -11 l112 1 7 -28 c10 -49 12 -49 13 1 1 38 -2 47 -13 43 -8 -3 -16 -2 -18 3 -3 7 -118 16 -143 10 -25 -6 -41 -4 -47 5 -5 6 -8 6 -8 -2 0 -7 -11 -9 -31 -6 -17 2 -37 -1 -47 -9 -14 -11 -15 -11 -9 6 7 17 5 17 -9 5 -9 -7 -34 -14 -55 -14 -31 0 -39 4 -41 20 -3 19 -4 19 -16 -2z"/><path d="M2210 892 c0 -6 -8 -13 -17 -15 -10 -3 21 -5 69 -6 48 0 89 2 91 7 3 4 -22 5 -54 4 -37 -3 -65 1 -74 8 -10 8 -15 9 -15 2z"/><path d="M1491 788 c2 -77 6 -69 11 20 2 28 0 52 -4 52 -5 0 -7 -33 -7 -72z"/><path d="M1170 772 l0 -37 57 3 c58 4 58 4 57 35 -1 32 -1 32 -57 34 l-57 2 0 -37z m93 2 c-6 -17 -27 -24 -52 -17 -41 11 -16 31 35 30 13 -1 20 -6 17 -13z"/><path d="M198 763 c23 -2 42 -8 42 -14 0 -5 5 -9 11 -9 8 0 8 5 -1 15 -8 10 -27 14 -54 13 l-41 -1 43 -4z"/><path d="M1766 763 c-4 -4 -28 -10 -54 -13 -35 -5 -22 -7 51 -8 53 0 101 -3 106 -6 12 -8 121 16 121 26 0 5 -17 6 -38 3 -61 -7 -158 -8 -169 -2 -6 4 -13 3 -17 0z"/><path d="M1030 736 c0 -23 103 -36 116 -15 4 8 0 9 -15 4 -13 -4 -21 -2 -21 5 0 6 -4 9 -9 6 -4 -3 -22 -1 -40 4 -23 6 -31 5 -31 -4z"/><path d="M1290 709 c0 -5 6 -9 13 -10 6 0 21 -2 31 -4 46 -9 107 -8 116 1 7 7 -8 10 -43 12 -28 1 -67 3 -84 6 -18 2 -33 0 -33 -5z"/><path d="M740 702 c20 -14 211 -20 198 -7 -2 3 -51 7 -109 11 -69 3 -99 2 -89 -4z"/><path d="M2594 700 c-12 -5 -25 -13 -29 -19 -4 -7 -16 -6 -37 5 -16 9 -27 11 -24 5 4 -6 2 -11 -3 -11 -6 0 -11 -5 -11 -11 0 -6 7 -8 16 -5 8 3 12 2 9 -4 -3 -6 -13 -10 -22 -10 -14 0 -67 -20 -106 -41 -10 -6 -32 -7 -48 -4 -30 7 -41 -8 -14 -19 21 -8 19 -26 -2 -26 -14 0 -15 -2 -4 -9 8 -5 11 -16 6 -30 -9 -28 8 -27 24 2 16 30 88 76 176 112 73 30 114 55 115 68 0 9 -19 8 -46 -3z"/><path d="M1091 661 c-14 -4 9 -7 55 -7 52 0 69 2 49 7 -38 9 -74 9 -104 0z"/><path d="M303 648 c2 -7 -5 -18 -17 -25 -20 -12 -20 -12 5 -13 14 0 28 3 31 6 9 8 -3 44 -14 44 -5 0 -8 -6 -5 -12z"/><path d="M372 644 c-10 -11 -10 -14 0 -14 9 0 9 -3 -2 -10 -12 -8 -10 -10 8 -10 l24 0 -5 -107 c-5 -96 -5 -101 4 -43 6 36 16 77 23 91 12 23 11 29 -5 50 -10 13 -17 30 -14 37 3 7 1 11 -4 7 -5 -3 -11 -1 -13 4 -1 5 -9 3 -16 -5z"/><path d="M1373 654 c2 -3 19 -9 36 -14 24 -7 31 -6 28 3 -2 7 -18 13 -36 14 -18 1 -31 -1 -28 -3z"/><path d="M426 627 c2 -7 18 -21 33 -30 l29 -17 -36 -105 c-20 -60 -39 -101 -43 -94 -4 7 -13 9 -21 6 -12 -4 -17 12 -26 71 -7 43 -12 88 -12 102 0 27 -15 58 -24 49 -5 -5 22 -162 39 -231 6 -25 4 -27 -37 -36 l-43 -10 50 1 c28 0 60 -3 71 -7 19 -7 26 0 56 53 l35 62 264 5 c145 4 266 8 268 10 3 3 -113 3 -257 2 -207 -2 -261 0 -257 10 2 6 1 12 -3 12 -4 0 -22 -27 -41 -61 -18 -33 -35 -58 -38 -56 -5 6 52 169 73 205 6 11 34 -14 34 -32 1 -20 1 -20 12 -2 9 16 8 22 -6 30 -10 6 -40 26 -68 44 -56 36 -59 37 -52 19z"/><path d="M1474 631 c3 -5 26 -12 51 -15 24 -4 47 -11 50 -17 4 -5 18 -9 33 -8 l27 1 -29 8 c-16 5 -32 14 -36 20 -4 7 -28 14 -54 16 -27 3 -45 1 -42 -5z"/><path d="M1990 588 c0 -18 6 -23 30 -25 18 -1 28 2 25 7 -4 6 -15 10 -27 10 -14 0 -18 5 -14 15 3 8 1 15 -4 15 -6 0 -10 -10 -10 -22z"/><path d="M1385 590 c-40 -5 -40 -5 -10 -12 17 -4 46 -3 65 1 32 7 33 8 10 12 -14 2 -43 2 -65 -1z"/><path d="M127 583 c-4 -3 -7 -16 -6 -27 1 -18 2 -18 9 4 7 21 8 21 9 5 2 -57 -7 -65 -75 -65 -36 0 -64 -4 -64 -10 0 -6 28 -10 65 -10 61 0 65 2 71 25 3 14 11 22 17 18 7 -4 8 5 4 26 -4 20 -3 30 3 26 6 -3 10 -1 10 4 0 12 -33 15 -43 4z"/><path d="M810 577 c0 -5 14 -7 30 -5 17 3 30 1 30 -4 0 -4 8 -8 17 -8 13 0 14 3 5 12 -15 15 -82 19 -82 5z"/><path d="M246 562 c-11 -10 -15 -11 -11 -3 6 11 3 13 -16 8 -13 -4 -27 -7 -31 -7 -5 0 -8 -7 -8 -15 0 -12 8 -14 43 -9 48 7 66 19 51 34 -6 7 -16 4 -28 -8z"/><path d="M1040 537 c0 -11 15 -14 68 -13 37 0 67 5 67 11 0 6 -30 11 -67 13 -53 2 -68 0 -68 -11z"/><path d="M1198 473 c-4 -89 8 -111 61 -117 25 -3 40 2 55 18 18 18 21 31 18 99 -3 58 -7 77 -18 77 -11 0 -14 -17 -14 -79 0 -84 -9 -99 -51 -86 -16 6 -19 17 -19 86 0 62 -3 79 -14 79 -11 0 -15 -19 -18 -77z"/><path d="M1447 532 c-10 -10 -17 -24 -17 -30 0 -17 27 -15 34 3 7 20 65 20 72 0 9 -21 -13 -44 -35 -38 -11 3 -31 -3 -45 -12 -21 -14 -26 -25 -26 -59 l0 -41 70 0 c61 0 70 2 70 18 0 10 4 16 9 12 5 -3 12 -1 16 4 3 6 -21 8 -66 4 -70 -6 -71 -6 -67 18 2 19 10 25 36 27 64 6 93 59 54 95 -25 23 -85 22 -105 -1z"/><path d="M2643 532 c-116 -6 -65 -19 100 -26 89 -3 183 -9 210 -12 39 -6 47 -4 47 10 0 9 -3 16 -7 17 -5 0 -26 2 -48 4 -67 7 -236 11 -302 7z"/><path d="M211 494 c-20 -29 -22 -39 -13 -58 8 -18 16 -23 31 -19 22 6 28 -6 11 -23 -7 -7 -1 -9 20 -6 30 4 30 5 14 23 -16 18 -16 19 4 19 12 0 22 2 22 4 0 2 3 12 7 22 4 12 3 15 -5 10 -8 -4 -10 -2 -6 8 3 8 -3 19 -15 26 -19 10 -21 8 -21 -15 0 -15 4 -24 8 -21 5 3 9 -1 9 -9 0 -8 -6 -15 -13 -15 -7 0 -19 -2 -26 -5 -16 -6 -22 31 -7 40 5 4 6 11 3 17 -4 6 -1 14 6 18 7 4 8 10 3 13 -5 3 -19 -10 -32 -29z"/><path d="M1643 510 c-31 -13 -40 -55 -18 -80 18 -20 65 -28 65 -11 0 15 -27 20 -39 8 -8 -8 -11 -7 -11 5 0 9 -3 23 -6 32 -4 11 -1 16 10 16 9 0 16 4 16 9 0 5 11 4 24 -2 18 -9 22 -15 14 -24 -6 -7 -7 -21 -4 -30 6 -15 8 -15 16 -3 16 26 11 58 -12 74 -25 18 -25 18 -55 6z"/><path d="M1760 510 c25 -4 39 -8 31 -8 -8 -1 -11 -5 -8 -8 3 -4 2 -15 -4 -25 -8 -15 -6 -19 6 -19 10 0 13 5 9 12 -5 8 0 9 15 5 14 -3 24 1 31 13 16 29 13 45 -5 30 -8 -7 -12 -16 -9 -21 3 -5 -1 -9 -9 -9 -10 0 -13 7 -10 20 5 18 1 20 -43 18 l-49 -1 45 -7z"/><path d="M540 490 c0 -6 86 -10 239 -10 149 0 242 4 246 10 4 7 -78 10 -239 10 -157 0 -246 -4 -246 -10z"/><path d="M1047 493 c-4 -3 -7 -37 -7 -75 0 -51 3 -69 13 -66 6 3 13 23 15 46 l3 42 45 0 c32 0 44 4 44 15 0 11 -12 15 -45 15 -33 0 -45 4 -45 15 0 16 -12 20 -23 8z"/><path d="M140 472 c0 -20 -5 -22 -70 -22 -40 0 -70 -4 -70 -10 0 -6 30 -10 70 -10 66 0 70 1 76 25 4 14 4 29 0 32 -3 4 -6 -3 -6 -15z"/><path d="M1923 473 c37 -2 96 -2 130 0 34 2 4 3 -68 3 -71 0 -99 -1 -62 -3z"/><path d="M1363 453 c-24 -8 -13 -23 17 -23 17 0 30 4 30 9 0 11 -30 19 -47 14z"/><path d="M155 405 c2 -22 7 -60 11 -85 7 -41 6 -44 -9 -31 -11 8 -28 11 -48 7 -21 -4 -28 -2 -23 6 4 7 3 8 -5 4 -6 -4 -9 -12 -6 -17 8 -12 -1 -11 -24 2 -13 9 -23 9 -37 0 -16 -10 -15 -10 11 -5 22 4 26 3 15 -5 -10 -7 81 -10 295 -9 171 1 294 3 275 5 -19 2 -42 6 -50 9 -18 7 -278 8 -333 1 -46 -5 -37 8 19 29 l39 14 -51 -6 -52 -6 -16 63 c-10 43 -14 51 -11 24z"/><path d="M1860 421 c0 -6 6 -11 13 -11 8 0 7 -4 -3 -10 -13 -8 -13 -10 2 -10 9 0 19 6 21 13 4 9 8 9 15 -1 7 -11 10 -11 15 2 4 9 1 16 -6 16 -7 0 -22 3 -34 6 -14 4 -23 2 -23 -5z"/><path d="M2293 413 c4 -3 2 -12 -4 -20 -6 -7 -8 -13 -4 -13 4 0 2 -7 -5 -15 -7 -8 -10 -25 -6 -40 5 -21 2 -25 -21 -31 -16 -3 -38 -10 -50 -16 -26 -13 -80 1 -148 37 -43 23 -110 32 -120 15 -3 -6 3 -10 16 -10 27 0 101 -21 114 -32 5 -4 19 -8 32 -8 13 0 23 -4 23 -10 0 -16 -42 -12 -129 13 -44 13 -81 20 -81 15 0 -5 11 -13 24 -18 53 -20 36 -29 -49 -26 -47 2 -88 -1 -91 -5 -10 -18 -24 -8 -24 16 0 14 -5 25 -12 25 -6 0 -3 7 8 15 16 12 17 16 4 24 -22 15 -32 3 -30 -38 3 -61 3 -61 -35 -55 -19 3 -35 1 -35 -3 0 -5 -16 -8 -35 -8 -19 1 -35 -1 -35 -4 0 -3 -11 -7 -25 -7 -20 -2 -25 3 -25 20 0 12 -4 26 -9 31 -5 6 -11 19 -14 30 -3 11 -5 -4 -6 -32 -1 -43 -4 -53 -18 -53 -39 -1 -146 -12 -302 -31 -90 -11 -166 -17 -169 -15 -2 3 -13 1 -24 -5 -10 -6 -47 -10 -81 -10 -86 0 -249 -19 -264 -32 -9 -7 -13 -5 -13 7 0 20 -7 20 -26 1 -8 -8 -22 -11 -31 -8 -10 4 -14 2 -10 -4 5 -7 -6 -11 -31 -11 -88 1 -232 -7 -218 -12 9 -3 -14 -6 -51 -7 -36 -1 -69 -5 -72 -10 -6 -7 -68 -13 -168 -15 -36 0 -43 -4 -43 -20 0 -17 5 -19 38 -14 20 3 102 11 182 17 80 5 244 22 365 35 222 25 449 50 715 79 80 8 156 17 170 20 36 7 265 31 465 50 301 27 378 35 379 38 1 1 0 37 -2 80 -2 47 -8 77 -14 77 -6 0 -8 -3 -5 -7z"/><path d="M273 383 c-13 -2 -23 -8 -23 -13 0 -4 -9 -6 -20 -3 -14 4 -20 0 -20 -11 0 -19 -4 -19 60 -5 31 7 50 16 50 25 0 14 -6 15 -47 7z"/><path d="M2911 374 c-18 -12 -150 -19 -326 -18 -66 1 -111 -1 -100 -3 11 -2 26 -6 34 -9 8 -2 103 -5 212 -7 148 -1 201 1 210 11 7 6 23 12 36 12 14 0 23 6 23 15 0 18 -62 17 -89 -1z"/><path d="M650 279 c0 -19 124 -26 150 -9 11 7 7 10 -20 11 -94 4 -130 3 -130 -2z"/><path d="M903 263 c-50 -6 -39 -19 16 -21 35 0 51 4 55 14 6 14 -3 15 -71 7z"/><path d="M0 246 c0 -11 7 -13 33 -6 17 5 41 11 52 13 11 3 -4 5 -32 6 -40 1 -53 -3 -53 -13z"/><path d="M300 225 c-41 -7 -126 -16 -187 -20 -83 -5 -113 -10 -113 -20 0 -10 31 -15 115 -20 64 -4 119 -5 122 -1 4 3 -20 7 -53 7 -57 1 -55 2 36 15 60 8 177 12 320 11 124 -1 197 -3 163 -5 -35 -1 -63 -7 -63 -12 0 -13 56 -12 142 2 54 9 75 9 89 0 15 -10 19 -9 19 3 0 11 12 15 43 16 23 1 56 5 72 9 17 4 -113 8 -287 9 -199 1 -319 5 -323 11 -3 6 -9 9 -13 9 -4 -1 -41 -7 -82 -14z"/><path d="M425 160 c-77 -3 -121 -7 -97 -8 25 -1 41 -6 37 -12 -6 -10 35 -6 185 15 92 14 85 14 -125 5z"/><path d="M25 109 c-18 -4 2 -7 53 -8 48 -1 82 3 82 9 0 10 -84 10 -135 -1z"/></g></svg>